ffmpeg version 4.2.4-1ubuntu0.1 Copyright (c) 2000-2020 the FFmpeg developers
  built with gcc 9 (Ubuntu 9.3.0-10ubuntu2)
  configuration: --prefix=/usr --extra-version=1ubuntu0.1 --toolchain=hardened --libdir=/usr/lib/x86_64-linux-gnu --incdir=/usr/include/x86_64-linux-gnu --arch=amd64 --enable-gpl --disable-stripping --enable-avresample --disable-filter=resample --enable-avisynth --enable-gnutls --enable-ladspa --enable-libaom --enable-libass --enable-libbluray --enable-libbs2b --enable-libcaca --enable-libcdio --enable-libcodec2 --enable-libflite --enable-libfontconfig --enable-libfreetype --enable-libfribidi --enable-libgme --enable-libgsm --enable-libjack --enable-libmp3lame --enable-libmysofa --enable-libopenjpeg --enable-libopenmpt --enable-libopus --enable-libpulse --enable-librsvg --enable-librubberband --enable-libshine --enable-libsnappy --enable-libsoxr --enable-libspeex --enable-libssh --enable-libtheora --enable-libtwolame --enable-libvidstab --enable-libvorbis --enable-libvpx --enable-libwavpack --enable-libwebp --enable-libx265 --enable-libxml2 --enable-libxvid --enable-libzmq --enable-libzvbi --enable-lv2 --enable-omx --enable-openal --enable-opencl --enable-opengl --enable-sdl2 --enable-libdc1394 --enable-libdrm --enable-libiec61883 --enable-nvenc --enable-chromaprint --enable-frei0r --enable-libx264 --enable-shared
  WARNING: library configuration mismatch
  avcodec     configuration: --prefix=/usr --extra-version=1ubuntu0.1 --toolchain=hardened --libdir=/usr/lib/x86_64-linux-gnu --incdir=/usr/include/x86_64-linux-gnu --arch=amd64 --enable-gpl --disable-stripping --enable-avresample --disable-filter=resample --enable-avisynth --enable-gnutls --enable-ladspa --enable-libaom --enable-libass --enable-libbluray --enable-libbs2b --enable-libcaca --enable-libcdio --enable-libcodec2 --enable-libflite --enable-libfontconfig --enable-libfreetype --enable-libfribidi --enable-libgme --enable-libgsm --enable-libjack --enable-libmp3lame --enable-libmysofa --enable-libopenjpeg --enable-libopenmpt --enable-libopus --enable-libpulse --enable-librsvg --enable-librubberband --enable-libshine --enable-libsnappy --enable-libsoxr --enable-libspeex --enable-libssh --enable-libtheora --enable-libtwolame --enable-libvidstab --enable-libvorbis --enable-libvpx --enable-libwavpack --enable-libwebp --enable-libx265 --enable-libxml2 --enable-libxvid --enable-libzmq --enable-libzvbi --enable-lv2 --enable-omx --enable-openal --enable-opencl --enable-opengl --enable-sdl2 --enable-libdc1394 --enable-libdrm --enable-libiec61883 --enable-nvenc --enable-chromaprint --enable-frei0r --enable-libx264 --enable-shared --enable-version3 --disable-doc --disable-programs --enable-libaribb24 --enable-liblensfun --enable-libopencore_amrnb --enable-libopencore_amrwb --enable-libtesseract --enable-libvo_amrwbenc
  libavutil      56. 31.100 / 56. 31.100
  libavcodec     58. 54.100 / 58. 54.100
  libavformat    58. 29.100 / 58. 29.100
  libavdevice    58.  8.100 / 58.  8.100
  libavfilter     7. 57.100 /  7. 57.100
  libavresample   4.  0.  0 /  4.  0.  0
  libswscale      5.  5.100 /  5.  5.100
  libswresample   3.  5.100 /  3.  5.100
  libpostproc    55.  5.100 / 55.  5.100
Input #0, image2pipe, from 'pipe:':
  Duration: N/A, bitrate: N/A
    Stream #0:0: Video: ppm, rgb24, 2600x400, 25 fps, 25 tbr, 25 tbn, 25 tbc
Stream mapping:
  Stream #0:0 -> #0:0 (ppm (native) -> h264 (libx264))
[libx264 @ 0x5555555dfec0] using cpu capabilities: MMX2 SSE2Fast SSSE3 SSE4.2 AVX FMA3 BMI2 AVX2 AVX512
[libx264 @ 0x5555555dfec0] profile High, level 3.0
Output #0, mpegts, to 'xmovie.mp4':
  Metadata:
    encoder         : Lavf58.29.100
    Stream #0:0: Video: h264 (libx264), yuv420p, 600x600, q=-1--1, 25 fps, 90k tbn, 25 tbc
    Metadata:
      encoder         : Lavc58.54.100 libx264
    Side data:
      cpb: bitrate max/min/avg: 0/0/0 buffer size: 0 vbv_delay: -1
frame=    5 fps=2.6 q=16.0 size=      23kB time=00:00:00.16 bitrate=1193.7kbits/s speed=0.0824x    frame=    6 fps=1.6 q=15.0 size=      27kB time=00:00:00.20 bitrate=1112.9kbits/s speed=0.053x    frame=    7 fps=1.2 q=15.0 size=      31kB time=00:00:00.24 bitrate=1052.8kbits/s speed=0.0428x    frame=    8 fps=1.1 q=15.0 size=      35kB time=00:00:00.28 bitrate=1025.9kbits/s speed=0.0376x    frame=    9 fps=1.0 q=15.0 size=      39kB time=00:00:00.32 bitrate=1010.5kbits/s speed=0.0339x    frame=   10 fps=0.9 q=15.0 size=      44kB time=00:00:00.36 bitrate= 990.1kbits/s speed=0.0319x    frame=   11 fps=0.8 q=15.0 size=      48kB time=00:00:00.40 bitrate= 981.3kbits/s speed=0.0303x    frame=   12 fps=0.8 q=15.0 size=      52kB time=00:00:00.44 bitrate= 970.7kbits/s speed=0.0282x    frame=   13 fps=0.7 q=15.0 size=      56kB time=00:00:00.48 bitrate= 961.9kbits/s speed=0.0273x    frame=   14 fps=0.7 q=15.0 size=      60kB time=00:00:00.52 bitrate= 948.7kbits/s speed=0.0268x    frame=   15 fps=0.7 q=15.0 size=      64kB time=00:00:00.56 bitrate= 940.0kbits/s speed=0.0264x    frame=   16 fps=0.7 q=15.0 size=      68kB time=00:00:00.60 bitrate= 932.5kbits/s speed=0.0261x    frame=   17 fps=0.7 q=15.0 size=      72kB time=00:00:00.64 bitrate= 925.9kbits/s speed=0.0255x    frame=   18 fps=0.7 q=15.0 size=      76kB time=00:00:00.68 bitrate= 911.2kbits/s speed=0.0252x    frame=   19 fps=0.7 q=15.0 size=      80kB time=00:00:00.72 bitrate= 906.6kbits/s speed=0.0249x    frame=   20 fps=0.6 q=15.0 size=      83kB time=00:00:00.76 bitrate= 896.5kbits/s speed=0.0247x    frame=   21 fps=0.6 q=15.0 size=      87kB time=00:00:00.80 bitrate= 893.0kbits/s speed=0.0245x    frame=   22 fps=0.6 q=15.0 size=      91kB time=00:00:00.84 bitrate= 884.5kbits/s speed=0.024x    frame=   23 fps=0.6 q=15.0 size=      95kB time=00:00:00.88 bitrate= 883.6kbits/s speed=0.0239x    frame=   24 fps=0.6 q=15.0 size=      98kB time=00:00:00.92 bitrate= 874.6kbits/s speed=0.0238x    frame=   25 fps=0.6 q=15.0 size=     102kB time=00:00:00.96 bitrate= 871.1kbits/s speed=0.0238x    frame=   26 fps=0.6 q=15.0 size=     106kB time=00:00:01.00 bitrate= 864.8kbits/s speed=0.0237x    frame=   27 fps=0.6 q=15.0 size=     109kB time=00:00:01.04 bitrate= 861.9kbits/s speed=0.0237x    frame=   28 fps=0.6 q=15.0 size=     113kB time=00:00:01.08 bitrate= 859.2kbits/s speed=0.0236x    frame=   29 fps=0.6 q=15.0 size=     118kB time=00:00:01.12 bitrate= 862.1kbits/s speed=0.0236x    frame=   30 fps=0.6 q=15.0 size=     122kB time=00:00:01.16 bitrate= 858.3kbits/s speed=0.0236x    frame=   31 fps=0.6 q=15.0 size=     126kB time=00:00:01.20 bitrate= 857.3kbits/s speed=0.0236x    frame=   32 fps=0.6 q=15.0 size=     129kB time=00:00:01.24 bitrate= 852.7kbits/s speed=0.0233x    frame=   33 fps=0.6 q=16.0 size=     133kB time=00:00:01.28 bitrate= 851.9kbits/s speed=0.0233x    frame=   34 fps=0.6 q=16.0 size=     138kB time=00:00:01.32 bitrate= 855.7kbits/s speed=0.0233x    frame=   35 fps=0.6 q=16.0 size=     142kB time=00:00:01.36 bitrate= 854.8kbits/s speed=0.0233x    frame=   36 fps=0.6 q=16.0 size=     146kB time=00:00:01.40 bitrate= 853.0kbits/s speed=0.0233x    frame=   37 fps=0.6 q=16.0 size=     150kB time=00:00:01.44 bitrate= 853.3kbits/s speed=0.0233x    frame=   38 fps=0.6 q=16.0 size=     155kB time=00:00:01.48 bitrate= 856.7kbits/s speed=0.0233x    frame=   39 fps=0.6 q=16.0 size=     159kB time=00:00:01.52 bitrate= 858.9kbits/s speed=0.0233x    frame=   40 fps=0.6 q=16.0 size=     164kB time=00:00:01.56 bitrate= 860.0kbits/s speed=0.0233x    frame=   41 fps=0.6 q=16.0 size=     168kB time=00:00:01.60 bitrate= 859.2kbits/s speed=0.0233x    frame=   42 fps=0.6 q=16.0 size=     172kB time=00:00:01.64 bitrate= 859.3kbits/s speed=0.0231x    frame=   43 fps=0.6 q=16.0 size=     176kB time=00:00:01.68 bitrate= 858.5kbits/s speed=0.0231x    frame=   44 fps=0.6 q=16.0 size=     181kB time=00:00:01.72 bitrate= 861.3kbits/s speed=0.0231x    frame=   45 fps=0.6 q=16.0 size=     185kB time=00:00:01.76 bitrate= 860.5kbits/s speed=0.0231x    frame=   46 fps=0.6 q=16.0 size=     190kB time=00:00:01.80 bitrate= 864.0kbits/s speed=0.0231x    frame=   47 fps=0.6 q=16.0 size=     194kB time=00:00:01.84 bitrate= 865.6kbits/s speed=0.0231x    frame=   48 fps=0.6 q=16.0 size=     199kB time=00:00:01.88 bitrate= 866.4kbits/s speed=0.0232x    frame=   49 fps=0.6 q=16.0 size=     204kB time=00:00:01.92 bitrate= 870.3kbits/s speed=0.0232x    frame=   50 fps=0.6 q=16.0 size=     209kB time=00:00:01.96 bitrate= 873.2kbits/s speed=0.0232x    frame=   51 fps=0.6 q=16.0 size=     213kB time=00:00:02.00 bitrate= 873.1kbits/s speed=0.0232x    frame=   52 fps=0.6 q=16.0 size=     218kB time=00:00:02.04 bitrate= 875.9kbits/s speed=0.023x    frame=   53 fps=0.6 q=16.0 size=     222kB time=00:00:02.08 bitrate= 874.2kbits/s speed=0.023x    frame=   54 fps=0.6 q=16.0 size=     226kB time=00:00:02.12 bitrate= 873.3kbits/s speed=0.0229x    frame=   55 fps=0.6 q=13.0 size=     249kB time=00:00:02.16 bitrate= 945.6kbits/s speed=0.0229x    frame=   56 fps=0.6 q=17.0 size=     252kB time=00:00:02.20 bitrate= 939.3kbits/s speed=0.023x    frame=   57 fps=0.6 q=17.0 size=     256kB time=00:00:02.24 bitrate= 934.6kbits/s speed=0.023x    frame=   58 fps=0.6 q=17.0 size=     256kB time=00:00:02.28 bitrate= 919.8kbits/s speed=0.0231x    frame=   59 fps=0.6 q=17.0 size=     256kB time=00:00:02.32 bitrate= 903.9kbits/s speed=0.0231x    frame=   60 fps=0.6 q=17.0 size=     256kB time=00:00:02.36 bitrate= 888.6kbits/s speed=0.0232x    Error while decoding stream #0:0: Invalid data found when processing input
frame=   60 fps=0.6 q=17.0 size=     256kB time=00:00:02.36 bitrate= 888.6kbits/s speed=0.0228x    frame=   60 fps=0.6 q=17.0 Lsize=     267kB time=00:00:02.36 bitrate= 926.6kbits/s speed=0.0226x    
video:240kB audio:0kB subtitle:0kB other streams:0kB global headers:0kB muxing overhead: 11.016257%
[libx264 @ 0x5555555dfec0] frame I:3     Avg QP: 6.05  size:  9717
[libx264 @ 0x5555555dfec0] frame P:57    Avg QP:10.10  size:  3808
[libx264 @ 0x5555555dfec0] mb I  I16..4: 63.1% 27.7%  9.2%
[libx264 @ 0x5555555dfec0] mb P  I16..4: 13.5%  3.7%  0.5%  P16..4: 23.5% 10.0%  5.9%  0.0%  0.0%    skip:42.8%
[libx264 @ 0x5555555dfec0] 8x8 transform intra:22.4% inter:32.9%
[libx264 @ 0x5555555dfec0] coded y,uvDC,uvAC intra: 12.3% 35.7% 34.1% inter: 3.4% 12.8% 7.6%
[libx264 @ 0x5555555dfec0] i16 v,h,dc,p: 35% 55%  7%  3%
[libx264 @ 0x5555555dfec0] i8 v,h,dc,ddl,ddr,vr,hd,vl,hu: 17% 39% 28%  1%  2%  2%  3%  2%  5%
[libx264 @ 0x5555555dfec0] i4 v,h,dc,ddl,ddr,vr,hd,vl,hu: 20% 30% 17%  4%  8%  5%  7%  3%  7%
[libx264 @ 0x5555555dfec0] i8c dc,h,v,p: 30% 59%  6%  4%
[libx264 @ 0x5555555dfec0] Weighted P-Frames: Y:1.8% UV:1.8%
[libx264 @ 0x5555555dfec0] ref P L0: 61.4%  1.3% 20.8%  8.1%  4.8%  3.6%
[libx264 @ 0x5555555dfec0] kb/s:820.76
Exiting normally, received signal 2.
ffmpeg version 4.2.4-1ubuntu0.1 Copyright (c) 2000-2020 the FFmpeg developers
  built with gcc 9 (Ubuntu 9.3.0-10ubuntu2)
  configuration: --prefix=/usr --extra-version=1ubuntu0.1 --toolchain=hardened --libdir=/usr/lib/x86_64-linux-gnu --incdir=/usr/include/x86_64-linux-gnu --arch=amd64 --enable-gpl --disable-stripping --enable-avresample --disable-filter=resample --enable-avisynth --enable-gnutls --enable-ladspa --enable-libaom --enable-libass --enable-libbluray --enable-libbs2b --enable-libcaca --enable-libcdio --enable-libcodec2 --enable-libflite --enable-libfontconfig --enable-libfreetype --enable-libfribidi --enable-libgme --enable-libgsm --enable-libjack --enable-libmp3lame --enable-libmysofa --enable-libopenjpeg --enable-libopenmpt --enable-libopus --enable-libpulse --enable-librsvg --enable-librubberband --enable-libshine --enable-libsnappy --enable-libsoxr --enable-libspeex --enable-libssh --enable-libtheora --enable-libtwolame --enable-libvidstab --enable-libvorbis --enable-libvpx --enable-libwavpack --enable-libwebp --enable-libx265 --enable-libxml2 --enable-libxvid --enable-libzmq --enable-libzvbi --enable-lv2 --enable-omx --enable-openal --enable-opencl --enable-opengl --enable-sdl2 --enable-libdc1394 --enable-libdrm --enable-libiec61883 --enable-nvenc --enable-chromaprint --enable-frei0r --enable-libx264 --enable-shared
  WARNING: library configuration mismatch
  avcodec     configuration: --prefix=/usr --extra-version=1ubuntu0.1 --toolchain=hardened --libdir=/usr/lib/x86_64-linux-gnu --incdir=/usr/include/x86_64-linux-gnu --arch=amd64 --enable-gpl --disable-stripping --enable-avresample --disable-filter=resample --enable-avisynth --enable-gnutls --enable-ladspa --enable-libaom --enable-libass --enable-libbluray --enable-libbs2b --enable-libcaca --enable-libcdio --enable-libcodec2 --enable-libflite --enable-libfontconfig --enable-libfreetype --enable-libfribidi --enable-libgme --enable-libgsm --enable-libjack --enable-libmp3lame --enable-libmysofa --enable-libopenjpeg --enable-libopenmpt --enable-libopus --enable-libpulse --enable-librsvg --enable-librubberband --enable-libshine --enable-libsnappy --enable-libsoxr --enable-libspeex --enable-libssh --enable-libtheora --enable-libtwolame --enable-libvidstab --enable-libvorbis --enable-libvpx --enable-libwavpack --enable-libwebp --enable-libx265 --enable-libxml2 --enable-libxvid --enable-libzmq --enable-libzvbi --enable-lv2 --enable-omx --enable-openal --enable-opencl --enable-opengl --enable-sdl2 --enable-libdc1394 --enable-libdrm --enable-libiec61883 --enable-nvenc --enable-chromaprint --enable-frei0r --enable-libx264 --enable-shared --enable-version3 --disable-doc --disable-programs --enable-libaribb24 --enable-liblensfun --enable-libopencore_amrnb --enable-libopencore_amrwb --enable-libtesseract --enable-libvo_amrwbenc
  libavutil      56. 31.100 / 56. 31.100
  libavcodec     58. 54.100 / 58. 54.100
  libavformat    58. 29.100 / 58. 29.100
  libavdevice    58.  8.100 / 58.  8.100
  libavfilter     7. 57.100 /  7. 57.100
  libavresample   4.  0.  0 /  4.  0.  0
  libswscale      5.  5.100 /  5.  5.100
  libswresample   3.  5.100 /  3.  5.100
  libpostproc    55.  5.100 / 55.  5.100
Input #0, image2pipe, from 'pipe:':
  Duration: N/A, bitrate: N/A
    Stream #0:0: Video: ppm, rgb24, 2600x400, 25 fps, 25 tbr, 25 tbn, 25 tbc
Stream mapping:
  Stream #0:0 -> #0:0 (ppm (native) -> h264 (libx264))
[libx264 @ 0x5555555dfec0] using cpu capabilities: MMX2 SSE2Fast SSSE3 SSE4.2 AVX FMA3 BMI2 AVX2 AVX512
[libx264 @ 0x5555555dfec0] profile High, level 3.0
Output #0, mpegts, to 'ymovie.mp4':
  Metadata:
    encoder         : Lavf58.29.100
    Stream #0:0: Video: h264 (libx264), yuv420p, 600x600, q=-1--1, 25 fps, 90k tbn, 25 tbc
    Metadata:
      encoder         : Lavc58.54.100 libx264
    Side data:
      cpb: bitrate max/min/avg: 0/0/0 buffer size: 0 vbv_delay: -1
frame=    5 fps=2.6 q=15.0 size=      21kB time=00:00:00.16 bitrate=1062.1kbits/s speed=0.0831x    frame=    6 fps=1.6 q=16.0 size=      25kB time=00:00:00.20 bitrate=1037.7kbits/s speed=0.0533x    frame=    7 fps=1.3 q=16.0 size=      31kB time=00:00:00.24 bitrate=1059.0kbits/s speed=0.0429x    frame=    8 fps=1.1 q=16.0 size=      37kB time=00:00:00.28 bitrate=1079.6kbits/s speed=0.0373x    frame=    9 fps=1.0 q=16.0 size=      43kB time=00:00:00.32 bitrate=1095.1kbits/s speed=0.034x    frame=   10 fps=0.9 q=16.0 size=      49kB time=00:00:00.36 bitrate=1119.6kbits/s speed=0.0319x    frame=   11 fps=0.8 q=16.0 size=      54kB time=00:00:00.40 bitrate=1105.4kbits/s speed=0.0304x    frame=   12 fps=0.8 q=16.0 size=      59kB time=00:00:00.44 bitrate=1107.5kbits/s speed=0.0282x    frame=   13 fps=0.7 q=16.0 size=      65kB time=00:00:00.48 bitrate=1112.3kbits/s speed=0.0273x    frame=   14 fps=0.7 q=16.0 size=      71kB time=00:00:00.52 bitrate=1122.2kbits/s speed=0.0268x    frame=   15 fps=0.7 q=16.0 size=      76kB time=00:00:00.56 bitrate=1114.5kbits/s speed=0.0264x    frame=   16 fps=0.7 q=17.0 size=      82kB time=00:00:00.60 bitrate=1125.5kbits/s speed=0.0261x    frame=   17 fps=0.7 q=17.0 size=      88kB time=00:00:00.64 bitrate=1132.7kbits/s speed=0.0255x    frame=   18 fps=0.7 q=17.0 size=      94kB time=00:00:00.68 bitrate=1130.2kbits/s speed=0.0252x    frame=   19 fps=0.7 q=17.0 size=      99kB time=00:00:00.72 bitrate=1121.7kbits/s speed=0.0249x    frame=   20 fps=0.6 q=17.0 size=     104kB time=00:00:00.76 bitrate=1118.1kbits/s speed=0.0247x    frame=   21 fps=0.6 q=17.0 size=     109kB time=00:00:00.80 bitrate=1118.6kbits/s speed=0.0245x    frame=   22 fps=0.6 q=17.0 size=     115kB time=00:00:00.84 bitrate=1122.6kbits/s speed=0.024x    frame=   23 fps=0.6 q=17.0 size=     122kB time=00:00:00.88 bitrate=1133.1kbits/s speed=0.0239x    frame=   24 fps=0.6 q=17.0 size=     128kB time=00:00:00.92 bitrate=1136.2kbits/s speed=0.0238x    frame=   25 fps=0.6 q=17.0 size=     133kB time=00:00:00.96 bitrate=1131.1kbits/s speed=0.0238x    frame=   26 fps=0.6 q=17.0 size=     138kB time=00:00:01.00 bitrate=1126.5kbits/s speed=0.0237x    frame=   27 fps=0.6 q=16.0 size=     142kB time=00:00:01.04 bitrate=1119.3kbits/s speed=0.0237x    frame=   28 fps=0.6 q=16.0 size=     147kB time=00:00:01.08 bitrate=1116.8kbits/s speed=0.0236x    frame=   29 fps=0.6 q=16.0 size=     152kB time=00:00:01.12 bitrate=1113.2kbits/s speed=0.0236x    frame=   30 fps=0.6 q=16.0 size=     158kB time=00:00:01.16 bitrate=1117.6kbits/s speed=0.0236x    frame=   31 fps=0.6 q=16.0 size=     164kB time=00:00:01.20 bitrate=1118.0kbits/s speed=0.0236x    frame=   32 fps=0.6 q=16.0 size=     169kB time=00:00:01.24 bitrate=1114.6kbits/s speed=0.0233x    frame=   33 fps=0.6 q=16.0 size=     175kB time=00:00:01.28 bitrate=1117.4kbits/s speed=0.0233x    frame=   34 fps=0.6 q=16.0 size=     180kB time=00:00:01.32 bitrate=1118.9kbits/s speed=0.0233x    frame=   35 fps=0.6 q=16.0 size=     186kB time=00:00:01.36 bitrate=1118.0kbits/s speed=0.0233x    frame=   36 fps=0.6 q=16.0 size=     192kB time=00:00:01.40 bitrate=1121.5kbits/s speed=0.0233x    frame=   37 fps=0.6 q=16.0 size=     198kB time=00:00:01.44 bitrate=1125.9kbits/s speed=0.0233x    frame=   38 fps=0.6 q=16.0 size=     204kB time=00:00:01.48 bitrate=1127.0kbits/s speed=0.0233x    frame=   39 fps=0.6 q=16.0 size=     209kB time=00:00:01.52 bitrate=1127.0kbits/s speed=0.0233x    frame=   40 fps=0.6 q=16.0 size=     215kB time=00:00:01.56 bitrate=1128.0kbits/s speed=0.0233x    frame=   41 fps=0.6 q=16.0 size=     220kB time=00:00:01.60 bitrate=1128.9kbits/s speed=0.0233x    frame=   42 fps=0.6 q=16.0 size=     225kB time=00:00:01.64 bitrate=1125.2kbits/s speed=0.0231x    frame=   43 fps=0.6 q=15.0 size=     229kB time=00:00:01.68 bitrate=1118.1kbits/s speed=0.0231x    frame=   44 fps=0.6 q=15.0 size=     234kB time=00:00:01.72 bitrate=1113.1kbits/s speed=0.0231x    frame=   45 fps=0.6 q=15.0 size=     238kB time=00:00:01.76 bitrate=1105.8kbits/s speed=0.0231x    frame=   46 fps=0.6 q=15.0 size=     242kB time=00:00:01.80 bitrate=1101.3kbits/s speed=0.0231x    frame=   47 fps=0.6 q=15.0 size=     246kB time=00:00:01.84 bitrate=1094.5kbits/s speed=0.0231x    frame=   48 fps=0.6 q=15.0 size=     250kB time=00:00:01.88 bitrate=1089.6kbits/s speed=0.0232x    frame=   49 fps=0.6 q=15.0 size=     255kB time=00:00:01.92 bitrate=1087.3kbits/s speed=0.0232x    frame=   50 fps=0.6 q=15.0 size=     256kB time=00:00:01.96 bitrate=1070.0kbits/s speed=0.0232x    frame=   51 fps=0.6 q=15.0 size=     256kB time=00:00:02.00 bitrate=1048.6kbits/s speed=0.0232x    frame=   52 fps=0.6 q=15.0 size=     256kB time=00:00:02.04 bitrate=1028.0kbits/s speed=0.023x    frame=   53 fps=0.6 q=15.0 size=     256kB time=00:00:02.08 bitrate=1008.2kbits/s speed=0.023x    frame=   54 fps=0.6 q=15.0 size=     256kB time=00:00:02.12 bitrate= 989.2kbits/s speed=0.0229x    frame=   55 fps=0.6 q=15.0 size=     256kB time=00:00:02.16 bitrate= 970.9kbits/s speed=0.0229x    frame=   56 fps=0.6 q=16.0 size=     256kB time=00:00:02.20 bitrate= 953.2kbits/s speed=0.023x    frame=   57 fps=0.6 q=16.0 size=     256kB time=00:00:02.24 bitrate= 936.2kbits/s speed=0.023x    frame=   58 fps=0.6 q=16.0 size=     256kB time=00:00:02.28 bitrate= 919.8kbits/s speed=0.0231x    frame=   59 fps=0.6 q=16.0 size=     256kB time=00:00:02.32 bitrate= 903.9kbits/s speed=0.0231x    frame=   60 fps=0.6 q=16.0 size=     256kB time=00:00:02.36 bitrate= 888.6kbits/s speed=0.0232x    Error while decoding stream #0:0: Invalid data found when processing input
frame=   60 fps=0.6 q=16.0 size=     256kB time=00:00:02.36 bitrate= 888.6kbits/s speed=0.0228x    frame=   60 fps=0.6 q=16.0 Lsize=     310kB time=00:00:02.36 bitrate=1075.1kbits/s speed=0.0228x    
video:281kB audio:0kB subtitle:0kB other streams:0kB global headers:0kB muxing overhead: 10.335470%
[libx264 @ 0x5555555dfec0] frame I:1     Avg QP: 1.34  size:  1375
[libx264 @ 0x5555555dfec0] frame P:59    Avg QP: 9.15  size:  4849
[libx264 @ 0x5555555dfec0] mb I  I16..4: 99.4%  0.0%  0.6%
[libx264 @ 0x5555555dfec0] mb P  I16..4: 17.1% 19.2%  1.4%  P16..4: 18.0%  8.8%  4.7%  0.0%  0.0%    skip:30.8%
[libx264 @ 0x5555555dfec0] 8x8 transform intra:48.7% inter:53.5%
[libx264 @ 0x5555555dfec0] coded y,uvDC,uvAC intra: 8.7% 33.3% 30.6% inter: 7.3% 21.0% 10.1%
[libx264 @ 0x5555555dfec0] i16 v,h,dc,p: 62% 22% 13%  3%
[libx264 @ 0x5555555dfec0] i8 v,h,dc,ddl,ddr,vr,hd,vl,hu: 23%  3% 66%  1%  1%  2%  1%  2%  1%
[libx264 @ 0x5555555dfec0] i4 v,h,dc,ddl,ddr,vr,hd,vl,hu: 28%  9% 35%  5%  5%  9%  2%  5%  2%
[libx264 @ 0x5555555dfec0] i8c dc,h,v,p: 64% 16% 16%  4%
[libx264 @ 0x5555555dfec0] Weighted P-Frames: Y:25.4% UV:23.7%
[libx264 @ 0x5555555dfec0] ref P L0: 62.9%  4.1% 22.4%  5.6%  2.9%  1.6%  0.6%
[libx264 @ 0x5555555dfec0] kb/s:958.16
Exiting normally, received signal 2.
ffmpeg version 4.2.4-1ubuntu0.1 Copyright (c) 2000-2020 the FFmpeg developers
  built with gcc 9 (Ubuntu 9.3.0-10ubuntu2)
  configuration: --prefix=/usr --extra-version=1ubuntu0.1 --toolchain=hardened --libdir=/usr/lib/x86_64-linux-gnu --incdir=/usr/include/x86_64-linux-gnu --arch=amd64 --enable-gpl --disable-stripping --enable-avresample --disable-filter=resample --enable-avisynth --enable-gnutls --enable-ladspa --enable-libaom --enable-libass --enable-libbluray --enable-libbs2b --enable-libcaca --enable-libcdio --enable-libcodec2 --enable-libflite --enable-libfontconfig --enable-libfreetype --enable-libfribidi --enable-libgme --enable-libgsm --enable-libjack --enable-libmp3lame --enable-libmysofa --enable-libopenjpeg --enable-libopenmpt --enable-libopus --enable-libpulse --enable-librsvg --enable-librubberband --enable-libshine --enable-libsnappy --enable-libsoxr --enable-libspeex --enable-libssh --enable-libtheora --enable-libtwolame --enable-libvidstab --enable-libvorbis --enable-libvpx --enable-libwavpack --enable-libwebp --enable-libx265 --enable-libxml2 --enable-libxvid --enable-libzmq --enable-libzvbi --enable-lv2 --enable-omx --enable-openal --enable-opencl --enable-opengl --enable-sdl2 --enable-libdc1394 --enable-libdrm --enable-libiec61883 --enable-nvenc --enable-chromaprint --enable-frei0r --enable-libx264 --enable-shared
  WARNING: library configuration mismatch
  avcodec     configuration: --prefix=/usr --extra-version=1ubuntu0.1 --toolchain=hardened --libdir=/usr/lib/x86_64-linux-gnu --incdir=/usr/include/x86_64-linux-gnu --arch=amd64 --enable-gpl --disable-stripping --enable-avresample --disable-filter=resample --enable-avisynth --enable-gnutls --enable-ladspa --enable-libaom --enable-libass --enable-libbluray --enable-libbs2b --enable-libcaca --enable-libcdio --enable-libcodec2 --enable-libflite --enable-libfontconfig --enable-libfreetype --enable-libfribidi --enable-libgme --enable-libgsm --enable-libjack --enable-libmp3lame --enable-libmysofa --enable-libopenjpeg --enable-libopenmpt --enable-libopus --enable-libpulse --enable-librsvg --enable-librubberband --enable-libshine --enable-libsnappy --enable-libsoxr --enable-libspeex --enable-libssh --enable-libtheora --enable-libtwolame --enable-libvidstab --enable-libvorbis --enable-libvpx --enable-libwavpack --enable-libwebp --enable-libx265 --enable-libxml2 --enable-libxvid --enable-libzmq --enable-libzvbi --enable-lv2 --enable-omx --enable-openal --enable-opencl --enable-opengl --enable-sdl2 --enable-libdc1394 --enable-libdrm --enable-libiec61883 --enable-nvenc --enable-chromaprint --enable-frei0r --enable-libx264 --enable-shared --enable-version3 --disable-doc --disable-programs --enable-libaribb24 --enable-liblensfun --enable-libopencore_amrnb --enable-libopencore_amrwb --enable-libtesseract --enable-libvo_amrwbenc
  libavutil      56. 31.100 / 56. 31.100
  libavcodec     58. 54.100 / 58. 54.100
  libavformat    58. 29.100 / 58. 29.100
  libavdevice    58.  8.100 / 58.  8.100
  libavfilter     7. 57.100 /  7. 57.100
  libavresample   4.  0.  0 /  4.  0.  0
  libswscale      5.  5.100 /  5.  5.100
  libswresample   3.  5.100 /  3.  5.100
  libpostproc    55.  5.100 / 55.  5.100
[image2pipe @ 0x5555555dc400] Stream #0: not enough frames to estimate rate; consider increasing probesize
Input #0, image2pipe, from 'pipe:':
  Duration: N/A, bitrate: N/A
    Stream #0:0: Video: ppm, rgb24, 2600x400, 25 tbr, 25 tbn, 25 tbc
Stream mapping:
  Stream #0:0 -> #0:0 (ppm (native) -> h264 (libx264))
[libx264 @ 0x5555555dfc80] using cpu capabilities: MMX2 SSE2Fast SSSE3 SSE4.2 AVX FMA3 BMI2 AVX2 AVX512
[libx264 @ 0x5555555dfc80] profile High, level 3.2
Output #0, mpegts, to 'Vorticity.mp4':
  Metadata:
    encoder         : Lavf58.29.100
    Stream #0:0: Video: h264 (libx264), yuv420p, 2600x400, q=-1--1, 25 fps, 90k tbn, 25 tbc
    Metadata:
      encoder         : Lavc58.54.100 libx264
    Side data:
      cpb: bitrate max/min/avg: 0/0/0 buffer size: 0 vbv_delay: -1
frame=    4 fps=0.2 q=15.0 size=      50kB time=00:00:00.12 bitrate=3396.2kbits/s speed=0.00655x    frame=    5 fps=0.1 q=15.0 size=      66kB time=00:00:00.16 bitrate=3355.6kbits/s speed=0.00443x    Error while decoding stream #0:0: Invalid data found when processing input
frame=    5 fps=0.1 q=15.0 size=      66kB time=00:00:00.16 bitrate=3355.6kbits/s speed=0.00298x    frame=    5 fps=0.1 q=15.0 Lsize=      66kB time=00:00:00.16 bitrate=3355.6kbits/s speed=0.00227x    
video:60kB audio:0kB subtitle:0kB other streams:0kB global headers:0kB muxing overhead: 9.174312%
[libx264 @ 0x5555555dfc80] frame I:2     Avg QP:12.54  size:  7920
[libx264 @ 0x5555555dfc80] frame P:3     Avg QP: 7.34  size: 15212
[libx264 @ 0x5555555dfc80] mb I  I16..4: 49.6% 47.3%  3.1%
[libx264 @ 0x5555555dfc80] mb P  I16..4: 51.5% 20.0%  4.1%  P16..4:  6.4%  3.2%  2.0%  0.0%  0.0%    skip:12.8%
[libx264 @ 0x5555555dfc80] 8x8 transform intra:36.2% inter:64.9%
[libx264 @ 0x5555555dfc80] coded y,uvDC,uvAC intra: 11.0% 25.6% 23.8% inter: 9.0% 23.6% 13.7%
[libx264 @ 0x5555555dfc80] i16 v,h,dc,p: 31% 53% 15%  1%
[libx264 @ 0x5555555dfc80] i8 v,h,dc,ddl,ddr,vr,hd,vl,hu: 42% 28% 22%  1%  1%  1%  2%  1%  2%
[libx264 @ 0x5555555dfc80] i4 v,h,dc,ddl,ddr,vr,hd,vl,hu:  9% 34% 25%  2%  7%  3% 10%  3%  7%
[libx264 @ 0x5555555dfc80] i8c dc,h,v,p: 46% 49%  2%  2%
[libx264 @ 0x5555555dfc80] Weighted P-Frames: Y:66.7% UV:66.7%
[libx264 @ 0x5555555dfc80] ref P L0: 49.8%  1.9% 44.4%  3.8%  0.0%
[libx264 @ 0x5555555dfc80] kb/s:2459.04
Exiting normally, received signal 2.
swrast/s_texcombine.c:121:error: [Thread debugging using libthread_db enabled]
swrast/s_texcombine.c:121:error: Using host libthread_db library "/lib/x86_64-linux-gnu/libthread_db.so.1".
swrast/s_texcombine.c:121:error: [New Thread 0x7ffff623e700 (LWP 132175)]
swrast/s_texcombine.c:121:error: [New Thread 0x7ffff5a3d700 (LWP 132176)]
swrast/s_texcombine.c:121:error: [New Thread 0x7ffff523c700 (LWP 132177)]
swrast/s_texcombine.c:121:error: Thread 1 "multicouette" received signal SIGINT, Interrupt.
